<svg width="56" height="56" viewBox="0 0 56 56" fill="none" xmlns="http://www.w3.org/2000/svg">
<rect width="56" height="56" rx="20" fill="#009245"/>
<path d="M36.2656 33.2567C36.8697 33.2567 37.3594 32.7669 37.3594 32.1629V18.375C37.3594 15.9626 35.3967 14 32.9844 14H22.375C19.9626 14 18 15.9626 18 18.375V37.625C18 40.0374 19.9626 42 22.375 42H32.9844C35.3967 42 37.3594 40.0374 37.3594 37.625C37.3594 37.0209 36.8697 36.5312 36.2656 36.5312C35.6615 36.5312 35.1719 37.0209 35.1719 37.625C35.1719 38.8312 34.1906 39.8125 32.9844 39.8125H22.375C21.1688 39.8125 20.1875 38.8312 20.1875 37.625V18.375C20.1875 17.1688 21.1688 16.1875 22.375 16.1875H32.9844C34.1906 16.1875 35.1719 17.1688 35.1719 18.375V32.1629C35.1719 32.7669 35.6615 33.2567 36.2656 33.2567Z" fill="white"/>
<path d="M27.6797 38.1239C28.2837 38.1239 28.7734 37.6342 28.7734 37.0302C28.7734 36.4261 28.2837 35.9364 27.6797 35.9364C27.0756 35.9364 26.5859 36.4261 26.5859 37.0302C26.5859 37.6342 27.0756 38.1239 27.6797 38.1239Z" fill="white"/>
<path d="M29.8672 18.9832C29.8672 18.3791 29.3775 17.8894 28.7734 17.8894H26.5859C25.9819 17.8894 25.4922 18.3791 25.4922 18.9832C25.4922 19.5873 25.9819 20.0769 26.5859 20.0769H28.7734C29.3775 20.0769 29.8672 19.5872 29.8672 18.9832Z" fill="white"/>
</svg>
