<svg width="20" height="28" viewBox="0 0 20 28" fill="none" xmlns="http://www.w3.org/2000/svg">
<path d="M18.2656 19.2567C18.8697 19.2567 19.3594 18.7669 19.3594 18.1629V4.375C19.3594 1.96263 17.3967 0 14.9844 0H4.375C1.96263 0 0 1.96263 0 4.375V23.625C0 26.0374 1.96263 28 4.375 28H14.9844C17.3967 28 19.3594 26.0374 19.3594 23.625C19.3594 23.0209 18.8697 22.5312 18.2656 22.5312C17.6615 22.5312 17.1719 23.0209 17.1719 23.625C17.1719 24.8312 16.1906 25.8125 14.9844 25.8125H4.375C3.16881 25.8125 2.1875 24.8312 2.1875 23.625V4.375C2.1875 3.16881 3.16881 2.1875 4.375 2.1875H14.9844C16.1906 2.1875 17.1719 3.16881 17.1719 4.375V18.1629C17.1719 18.7669 17.6615 19.2567 18.2656 19.2567Z" fill="white"/>
<path d="M9.67969 24.1239C10.2837 24.1239 10.7734 23.6342 10.7734 23.0302C10.7734 22.4261 10.2837 21.9364 9.67969 21.9364C9.07563 21.9364 8.58594 22.4261 8.58594 23.0302C8.58594 23.6342 9.07563 24.1239 9.67969 24.1239Z" fill="white"/>
<path d="M11.8672 4.98318C11.8672 4.37911 11.3775 3.88943 10.7734 3.88943H8.58594C7.98186 3.88943 7.49219 4.37911 7.49219 4.98318C7.49219 5.58726 7.98186 6.07693 8.58594 6.07693H10.7734C11.3775 6.07693 11.8672 5.58721 11.8672 4.98318Z" fill="white"/>
</svg>
