<svg width="24" height="18" viewBox="0 0 24 18" fill="none" xmlns="http://www.w3.org/2000/svg">
<path d="M19.3125 10.9511C19.8303 10.9511 20.25 11.3735 20.25 11.8947V13.027C20.25 13.5482 19.8303 13.9706 19.3125 13.9706H17.1562C16.6384 13.9706 16.2188 13.5482 16.2188 13.027V11.8947C16.2188 11.3735 16.6384 10.9511 17.1562 10.9511H19.3125ZM22.125 9.25271V6.42199H1.875V13.9648C1.875 15.0054 2.71619 15.852 3.75 15.852H20.25C21.2838 15.852 22.125 15.0054 22.125 13.9648C22.125 13.4437 22.5447 13.0213 23.0625 13.0213C23.5803 13.0213 24 13.4437 24 13.9648C24 16.046 22.3178 17.7391 20.25 17.7391H3.75C1.68219 17.7391 0 16.046 0 13.9648V3.77428C0 1.69308 1.68219 0 3.75 0H20.25C22.3178 0 24 1.69308 24 3.77428V9.25271C24 9.77388 23.5803 10.1963 23.0625 10.1963C22.5447 10.1963 22.125 9.77388 22.125 9.25271ZM22.125 4.53485V3.77428C22.125 2.73378 21.2838 1.88714 20.25 1.88714H3.75C2.71619 1.88714 1.875 2.73378 1.875 3.77428V4.53485H22.125ZM4.6875 8.30914C4.16968 8.30914 3.75 8.73153 3.75 9.25271C3.75 9.77388 4.16968 10.1963 4.6875 10.1963H12.4219C12.9397 10.1963 13.3594 9.77388 13.3594 9.25271C13.3594 8.73153 12.9397 8.30914 12.4219 8.30914H4.6875Z" fill="#C5C5C5"/>
</svg>
