<svg width="29" height="28" viewBox="0 0 29 28" fill="none" xmlns="http://www.w3.org/2000/svg">
<path d="M23.9542 4.10048C21.3099 1.45627 17.7942 0 14.0547 0C14.0486 0 14.0426 5.47922e-05 14.0366 0.000164381C14.0244 5.47922e-05 14.0122 0 14 0C10.2605 0 6.7448 1.45627 4.10048 4.10048C1.45627 6.7448 0 10.2605 0 14C0 17.7395 1.45627 21.2552 4.10048 23.8995C6.7448 26.5437 10.2605 28 14 28C14.0122 28 14.0244 27.9999 14.0366 27.9998C14.0426 27.9999 14.0487 28 14.0547 28C16.4443 28 18.8035 27.3871 20.8775 26.2276C21.4047 25.9328 21.5932 25.2665 21.2984 24.7392C21.0036 24.2119 20.3372 24.0235 19.81 24.3183C19.5066 24.4879 19.1959 24.6436 18.879 24.7852C19.1111 24.4236 19.3323 24.0333 19.5413 23.6152C20.7033 21.2911 21.3962 18.2986 21.525 15.0937H25.8169C25.646 16.9466 25.0422 18.7299 24.0452 20.3059C23.7223 20.8164 23.8743 21.492 24.3847 21.8149C24.5662 21.9298 24.7685 21.9846 24.9684 21.9846C25.331 21.9846 25.6857 21.8044 25.8938 21.4754C27.3075 19.2408 28.0547 16.6558 28.0547 14C28.0547 10.2605 26.5985 6.7448 23.9542 4.10048ZM9.0958 3.25423C8.8729 3.6047 8.66013 3.98185 8.45871 4.3848C8.22808 4.84612 8.01597 5.33368 7.82304 5.84403C7.14797 5.714 6.50967 5.56261 5.91894 5.39181C6.8494 4.51774 7.92117 3.79248 9.0958 3.25423ZM9.33383 8.30084C10.4728 8.44528 11.6726 8.53679 12.9062 8.57087V12.9062H8.66418C8.73481 11.2761 8.96303 9.71673 9.33383 8.30084ZM4.35401 7.18868C5.20113 7.48627 6.14748 7.74063 7.1683 7.94753C6.78112 9.48922 6.54491 11.1665 6.47504 12.9063H2.23769C2.43281 10.7905 3.18832 8.83454 4.35401 7.18868ZM2.23764 15.0937H6.47499C6.54414 16.8147 6.77592 18.4744 7.1557 20.0022C6.12693 20.211 5.17362 20.4676 4.32327 20.7678C3.17506 19.131 2.43106 17.1909 2.23764 15.0937ZM5.87302 22.5649C6.47225 22.3887 7.11849 22.2336 7.80227 22.101C8.00068 22.6313 8.21975 23.1374 8.45871 23.6152C8.66018 24.0182 8.8729 24.3953 9.0958 24.7458C7.90178 24.1987 6.81411 23.4583 5.87302 22.5649ZM12.9062 25.5336C12.0056 25.0774 11.1348 24.076 10.4152 22.6369C10.2755 22.3574 10.1435 22.0663 10.0192 21.7647C10.9451 21.66 11.9134 21.5918 12.9062 21.5628V25.5336ZM12.9062 19.3746C11.6709 19.4091 10.4658 19.5018 9.32057 19.6479C8.95761 18.2457 8.73399 16.7042 8.66418 15.0937H12.9062V19.3746ZM12.9062 6.38206C11.9256 6.35263 10.9641 6.28398 10.0424 6.17959C10.1598 5.89778 10.2841 5.62535 10.4153 5.3631C11.1348 3.92398 12.0056 2.92262 12.9062 2.4664V6.38206ZM15.0937 2.4664C15.9944 2.92262 16.8652 3.92404 17.5848 5.3631C17.7159 5.62546 17.8403 5.898 17.9578 6.17998C17.0364 6.28425 16.075 6.3528 15.0937 6.38217V2.4664ZM17.5848 22.6369C16.8652 24.076 15.9944 25.0773 15.0937 25.5336V21.5627C16.0824 21.5913 17.0473 21.6591 17.9804 21.7654C17.8564 22.0668 17.7244 22.3577 17.5848 22.6369ZM18.6798 19.6466C17.5258 19.4992 16.3259 19.4081 15.0937 19.3743V15.0938H19.3358C19.266 16.7037 19.0426 18.2447 18.6798 19.6466ZM15.0937 12.9063V8.57093C16.3281 8.5369 17.5277 8.4455 18.6662 8.30123C19.037 9.717 19.2652 11.2763 19.3358 12.9063H15.0937V12.9063ZM19.5413 4.3848C19.3331 3.96848 19.1129 3.57966 18.8819 3.21933C20.0813 3.75851 21.1752 4.4922 22.123 5.37992C21.5206 5.55587 20.8682 5.71132 20.1771 5.84447C19.9843 5.3339 19.772 4.84612 19.5413 4.3848ZM21.525 12.9063C21.4551 11.1666 21.219 9.4895 20.8319 7.94791C21.8702 7.73745 22.8315 7.47778 23.6898 7.17334C24.8617 8.82243 25.6212 10.7839 25.817 12.9063H21.525V12.9063Z" fill="white"/>
</svg>
