<svg width="56" height="56" viewBox="0 0 56 56" fill="none" xmlns="http://www.w3.org/2000/svg">
<rect width="56" height="56" rx="20" fill="#EAB81B"/>
<path d="M37.9542 18.1005C35.3099 15.4563 31.7942 14 28.0547 14C28.0486 14 28.0426 14.0001 28.0366 14.0002C28.0244 14.0001 28.0122 14 28 14C24.2605 14 20.7448 15.4563 18.1005 18.1005C15.4563 20.7448 14 24.2605 14 28C14 31.7395 15.4563 35.2552 18.1005 37.8995C20.7448 40.5437 24.2605 42 28 42C28.0122 42 28.0244 41.9999 28.0366 41.9998C28.0426 41.9999 28.0487 42 28.0547 42C30.4443 42 32.8035 41.3871 34.8775 40.2276C35.4047 39.9328 35.5932 39.2665 35.2984 38.7392C35.0036 38.2119 34.3372 38.0235 33.81 38.3183C33.5066 38.4879 33.1959 38.6436 32.879 38.7852C33.1111 38.4236 33.3323 38.0333 33.5413 37.6152C34.7033 35.2911 35.3962 32.2986 35.525 29.0937H39.8169C39.646 30.9466 39.0422 32.7299 38.0452 34.3059C37.7223 34.8164 37.8743 35.492 38.3847 35.8149C38.5662 35.9298 38.7685 35.9846 38.9684 35.9846C39.331 35.9846 39.6857 35.8044 39.8938 35.4754C41.3075 33.2408 42.0547 30.6558 42.0547 28C42.0547 24.2605 40.5985 20.7448 37.9542 18.1005ZM23.0958 17.2542C22.8729 17.6047 22.6601 17.9818 22.4587 18.3848C22.2281 18.8461 22.016 19.3337 21.823 19.844C21.148 19.714 20.5097 19.5626 19.9189 19.3918C20.8494 18.5177 21.9212 17.7925 23.0958 17.2542ZM23.3338 22.3008C24.4728 22.4453 25.6726 22.5368 26.9062 22.5709V26.9062H22.6642C22.7348 25.2761 22.963 23.7167 23.3338 22.3008ZM18.354 21.1887C19.2011 21.4863 20.1475 21.7406 21.1683 21.9475C20.7811 23.4892 20.5449 25.1665 20.475 26.9063H16.2377C16.4328 24.7905 17.1883 22.8345 18.354 21.1887ZM16.2376 29.0937H20.475C20.5441 30.8147 20.7759 32.4744 21.1557 34.0022C20.1269 34.211 19.1736 34.4676 18.3233 34.7678C17.1751 33.131 16.4311 31.1909 16.2376 29.0937ZM19.873 36.5649C20.4722 36.3887 21.1185 36.2336 21.8023 36.101C22.0007 36.6313 22.2197 37.1374 22.4587 37.6152C22.6602 38.0182 22.8729 38.3953 23.0958 38.7458C21.9018 38.1987 20.8141 37.4583 19.873 36.5649ZM26.9063 39.5336C26.0056 39.0774 25.1348 38.076 24.4152 36.6369C24.2755 36.3574 24.1435 36.0663 24.0192 35.7647C24.9451 35.66 25.9134 35.5918 26.9063 35.5628V39.5336V39.5336ZM26.9063 33.3746C25.6709 33.4091 24.4658 33.5018 23.3206 33.6479C22.9576 32.2457 22.734 30.7042 22.6642 29.0937H26.9063V33.3746V33.3746ZM26.9063 20.3821C25.9256 20.3526 24.9641 20.284 24.0424 20.1796C24.1598 19.8978 24.2841 19.6253 24.4153 19.3631C25.1348 17.924 26.0056 16.9226 26.9063 16.4664V20.3821V20.3821ZM29.0937 16.4664C29.9944 16.9226 30.8652 17.924 31.5848 19.3631C31.7159 19.6255 31.8403 19.898 31.9578 20.18C31.0364 20.2842 30.075 20.3528 29.0937 20.3822V16.4664ZM31.5848 36.6369C30.8652 38.076 29.9944 39.0773 29.0937 39.5336V35.5627C30.0824 35.5913 31.0473 35.6591 31.9804 35.7654C31.8564 36.0668 31.7244 36.3577 31.5848 36.6369ZM32.6798 33.6466C31.5258 33.4992 30.3259 33.4081 29.0937 33.3743V29.0938H33.3358C33.266 30.7037 33.0426 32.2447 32.6798 33.6466ZM29.0937 26.9063V22.5709C30.3281 22.5369 31.5277 22.4455 32.6662 22.3012C33.037 23.717 33.2652 25.2763 33.3358 26.9063H29.0937V26.9063ZM33.5413 18.3848C33.3331 17.9685 33.1129 17.5797 32.8819 17.2193C34.0813 17.7585 35.1752 18.4922 36.123 19.3799C35.5206 19.5559 34.8682 19.7113 34.1771 19.8445C33.9843 19.3339 33.772 18.8461 33.5413 18.3848ZM35.525 26.9063C35.4551 25.1666 35.219 23.4895 34.8319 21.9479C35.8702 21.7374 36.8315 21.4778 37.6898 21.1733C38.8617 22.8224 39.6212 24.7839 39.817 26.9063H35.525V26.9063Z" fill="white"/>
</svg>
