<svg width="24" height="24" viewBox="0 0 24 24" fill="none" xmlns="http://www.w3.org/2000/svg">
<path d="M23.4839 8.8085C22.9341 6.81744 21.8671 4.98871 20.3984 3.51993C18.1285 1.25011 15.1105 0 11.9003 0C8.69021 0 5.67222 1.25011 3.4023 3.52002L3.09241 3.82991V0.937076C3.09241 0.41953 2.67288 0 2.15534 0C1.63779 0 1.21826 0.41953 1.21826 0.937076V4.36462C1.22196 5.10707 1.51081 5.80639 2.03168 6.33388C2.55438 6.86319 3.25165 7.15962 3.99508 7.16858L7.35606 7.16862C7.87361 7.16862 8.29314 6.74909 8.29314 6.23155C8.29314 5.714 7.87361 5.29447 7.35606 5.29447H4.27825L4.72755 4.84518C6.64347 2.92926 9.19084 1.87411 11.9003 1.87411C14.6099 1.87411 17.1572 2.92926 19.0731 4.84518C20.3131 6.08516 21.2136 7.62819 21.6774 9.30739C21.7921 9.72284 22.1691 9.99527 22.5801 9.99523C22.6626 9.99523 22.7466 9.98421 22.8301 9.96115C23.329 9.82348 23.6217 9.30739 23.4839 8.8085Z" fill="#C5C5C5"/>
<path d="M9.83123 21.9773C9.55331 21.9168 9.27454 21.8435 9.00281 21.7596C8.50837 21.6068 7.98365 21.8837 7.83084 22.3783C7.67803 22.8727 7.95506 23.3974 8.4495 23.5502C8.772 23.6498 9.1027 23.7367 9.43246 23.8086C9.49968 23.8232 9.56667 23.8303 9.63271 23.8303C10.0638 23.8303 10.4519 23.5308 10.5474 23.0923C10.6575 22.5866 10.3369 22.0873 9.83123 21.9773Z" fill="#C5C5C5"/>
<path d="M5.96045 20.214C5.73203 20.0441 5.50796 19.8622 5.29449 19.6735C4.9067 19.3306 4.31448 19.3673 3.97183 19.755C3.62903 20.1427 3.66555 20.735 4.05325 21.0777C4.306 21.3011 4.57126 21.5164 4.84168 21.7176C5.00968 21.8426 5.20585 21.9029 5.40034 21.9029C5.68642 21.9029 5.96898 21.7724 6.15292 21.5252C6.46187 21.1099 6.37571 20.5229 5.96045 20.214Z" fill="#C5C5C5"/>
<path d="M3.1517 17.0145C3.01276 16.7657 2.88301 16.5081 2.76596 16.2488C2.55292 15.7772 1.99782 15.5675 1.52622 15.7805C1.05456 15.9935 0.844889 16.5486 1.05789 17.0202C1.19673 17.3275 1.35062 17.633 1.51534 17.928C1.68686 18.2353 2.00575 18.4084 2.33439 18.4084C2.48898 18.4084 2.64573 18.3701 2.79029 18.2894C3.24217 18.0373 3.40398 17.4664 3.1517 17.0145Z" fill="#C5C5C5"/>
<path d="M1.90992 12.9456C1.8862 12.6626 1.87415 12.3741 1.87415 12.0883C1.87415 11.5707 1.45462 11.1512 0.937076 11.1512C0.41953 11.1512 0 11.5707 0 12.0883C0 12.4261 0.01425 12.7672 0.042328 13.1021C0.0833436 13.5912 0.492936 13.961 0.975045 13.961C1.00134 13.961 1.02778 13.9599 1.0544 13.9577C1.57017 13.9144 1.95318 13.4613 1.90992 12.9456Z" fill="#C5C5C5"/>
<path d="M19.2817 20.4576C18.9757 20.0403 18.3893 19.95 17.9719 20.256C17.742 20.4245 17.5023 20.5852 17.2596 20.7333C16.8178 21.003 16.6783 21.5797 16.9479 22.0214C17.1246 22.3107 17.4328 22.4704 17.7487 22.4704C17.9151 22.4704 18.0836 22.4261 18.236 22.333C18.5238 22.1574 18.8078 21.9671 19.0801 21.7674C19.4975 21.4614 19.5877 20.875 19.2817 20.4576Z" fill="#C5C5C5"/>
<path d="M23.0913 12.1695C22.5751 12.1228 22.12 12.5024 22.0731 13.0178C22.0473 13.3015 22.0091 13.5874 21.9595 13.8674C21.8692 14.3769 22.2091 14.8633 22.7187 14.9536C22.774 14.9634 22.829 14.9681 22.8833 14.9681C23.3292 14.9681 23.7244 14.6487 23.8049 14.1944C23.8637 13.8625 23.909 13.5238 23.9396 13.1877C23.9865 12.6722 23.6067 12.2164 23.0913 12.1695Z" fill="#C5C5C5"/>
<path d="M22.0801 16.7241C21.63 16.4686 21.0581 16.6265 20.8025 17.0765C20.6622 17.3238 20.5093 17.5683 20.3483 17.8033C20.0557 18.2301 20.1645 18.8134 20.5914 19.106C20.7534 19.2171 20.9378 19.2702 21.1204 19.2702C21.419 19.2702 21.7126 19.1277 21.8942 18.8629C22.085 18.5845 22.2661 18.2947 22.4325 18.0016C22.6879 17.5515 22.5302 16.9796 22.0801 16.7241Z" fill="#C5C5C5"/>
<path d="M15.1981 22.7164C15.0916 22.2098 14.5946 21.8857 14.0882 21.9922C13.8103 22.0507 13.5259 22.0979 13.243 22.1327C12.7293 22.1959 12.3641 22.6635 12.4273 23.1772C12.4856 23.652 12.8896 24 13.3561 24C13.3943 24 13.4329 23.9977 13.4716 23.9929C13.8071 23.9517 14.1443 23.8957 14.474 23.8263C14.9805 23.7198 15.3046 23.2229 15.1981 22.7164Z" fill="#C5C5C5"/>
</svg>
