<svg width="24" height="23" viewBox="0 0 24 23" fill="none" xmlns="http://www.w3.org/2000/svg">
<path d="M23.7275 10.5168L13.9593 0.752161C13.9468 0.739592 13.9338 0.727396 13.9205 0.715572C12.8539 -0.235505 11.2421 -0.238904 10.1714 0.707705C10.1581 0.719483 10.1451 0.731632 10.1325 0.744108L0.275244 10.5139C-0.0912241 10.8772 -0.0918335 11.4667 0.273932 11.8306C0.639744 12.1946 1.23332 12.1951 1.59974 11.8319L2.34374 11.0945V19.1331C2.34374 21.1865 4.02599 22.8571 6.09374 22.8571H9.46874C9.98652 22.8571 10.4062 22.4403 10.4062 21.9261V14.3384H13.6875V21.9261C13.6875 22.4403 14.1072 22.8571 14.625 22.8571H17.9062C19.974 22.8571 21.6562 21.1865 21.6562 19.1331C21.6562 18.6189 21.2365 18.2021 20.7187 18.2021C20.201 18.2021 19.7812 18.6189 19.7812 19.1331C19.7812 20.1598 18.9401 20.9951 17.9062 20.9951H15.5625V13.4073C15.5625 12.8931 15.1428 12.4763 14.625 12.4763H9.46874C8.95096 12.4763 8.53124 12.8931 8.53124 13.4073V20.9951H6.09374C5.05987 20.9951 4.21874 20.1598 4.21874 19.1331V9.26433C4.21874 9.25502 4.2186 9.24576 4.21832 9.23654L11.435 2.08398C11.7862 1.78778 12.3013 1.78889 12.6512 2.08654L19.7812 9.21392V14.478C19.7812 14.9922 20.201 15.409 20.7187 15.409C21.2365 15.409 21.6562 14.9922 21.6562 14.478V11.0882L22.3974 11.8291C22.5807 12.0123 22.8215 12.104 23.0625 12.104C23.3014 12.104 23.5404 12.0138 23.7232 11.8334C24.0905 11.471 24.0925 10.8816 23.7275 10.5168Z" fill="#1F505B"/>
</svg>
