<svg width="70" height="70" viewBox="0 0 70 70" fill="none" xmlns="http://www.w3.org/2000/svg">
<rect width="70" height="70" rx="16" fill="#1F505B"/>
<path d="M35.8012 56.5231C32.9696 56.5231 30.3822 55.8396 28.0388 54.4727C25.7093 53.1057 23.8681 51.2575 22.5151 48.9281C21.176 46.5986 20.5065 44.039 20.5065 41.2493C20.5065 38.4595 21.176 35.9 22.5151 33.5705C23.8681 31.2411 25.7093 29.4068 28.0388 28.0677C30.3682 26.7147 32.9557 26.0382 35.8012 26.0382C38.6328 26.0382 41.2133 26.7147 43.5428 28.0677C45.8722 29.4208 47.7065 31.262 49.0455 33.5914C50.3986 35.9069 51.0751 38.4595 51.0751 41.2493C51.0751 44.0251 50.3986 46.5847 49.0455 48.9281C47.7065 51.2575 45.8652 53.1057 43.5219 54.4727C41.1924 55.8396 38.6189 56.5231 35.8012 56.5231ZM35.8012 49.3047C37.1543 49.3047 38.4166 48.956 39.5883 48.2585C40.76 47.5471 41.6946 46.5777 42.392 45.3502C43.0894 44.1088 43.4382 42.7488 43.4382 41.2702C43.4382 39.7916 43.0825 38.4386 42.3711 37.2111C41.6736 35.9836 40.7391 35.0212 39.5674 34.3237C38.3957 33.6124 37.1403 33.2567 35.8012 33.2567C34.4482 33.2567 33.1859 33.6124 32.0142 34.3237C30.8425 35.0212 29.9009 35.9836 29.1895 37.2111C28.4921 38.4386 28.1434 39.7916 28.1434 41.2702C28.1434 42.7488 28.4921 44.1018 29.1895 45.3293C29.9009 46.5568 30.8425 47.5262 32.0142 48.2376C33.1998 48.949 34.4622 49.3047 35.8012 49.3047Z" fill="#E5EB69"/>
<path d="M30.6817 20.3305C32.4346 20.2532 33.8836 19.5327 34.9312 18.0844C35.1301 17.8085 35.1918 17.6266 34.8867 17.3448C34.7671 17.2363 34.6724 17.1048 34.6088 16.9589C34.5452 16.813 34.514 16.6559 34.5174 16.4977C34.5208 16.3395 34.5586 16.1837 34.6284 16.0404C34.6981 15.8971 34.7984 15.7695 34.9225 15.6658C35.1498 15.4611 35.4502 15.3485 35.7614 15.3514C36.0727 15.3543 36.3708 15.4724 36.5939 15.6813C36.7147 15.7889 36.811 15.9194 36.8769 16.0646C36.9428 16.2098 36.9768 16.3665 36.9768 16.5249C36.9768 16.6834 36.9428 16.8401 36.8769 16.9853C36.811 17.1304 36.7147 17.2609 36.5939 17.3686C36.3098 17.629 36.3592 17.7978 36.5371 18.0606C36.9179 18.6181 37.4112 19.0963 37.9877 19.4668C38.5643 19.8372 39.2122 20.0924 39.8932 20.2172C40.5741 20.342 41.2742 20.3338 41.9518 20.1931C42.6294 20.0524 43.2707 19.7821 43.8377 19.3983C44.149 19.1855 44.3318 19.0214 44.1305 18.5909C44.0632 18.4406 44.0306 18.278 44.0349 18.1144C44.0392 17.9507 44.0803 17.7899 44.1553 17.643C44.2303 17.4962 44.3375 17.3666 44.4695 17.2634C44.6015 17.1602 44.7551 17.0857 44.9198 17.0452C45.5375 16.8751 46.2614 17.2758 46.4022 17.8704C46.5751 18.5695 46.1786 19.1962 45.414 19.3044C45.0174 19.3603 44.8222 19.5303 44.6431 19.8525C43.7017 21.5139 42.9182 23.2539 42.3022 25.0511C42.1725 25.4411 42.0725 25.5672 41.6018 25.3496C37.6587 23.5267 33.6959 23.5517 29.7565 25.365C29.3353 25.5588 29.2253 25.4982 29.0956 25.107C28.4787 23.2894 27.688 21.5308 26.7337 19.8537C26.5805 19.5814 26.4348 19.4066 26.0568 19.3662C25.8875 19.3496 25.7239 19.2984 25.5768 19.2161C25.4297 19.1338 25.3026 19.0222 25.2038 18.8889C25.105 18.7556 25.0369 18.6035 25.004 18.4428C24.9711 18.2822 24.9741 18.1166 25.0129 17.9572C25.1686 17.3044 25.8665 16.887 26.5101 17.0606C27.2513 17.2592 27.6342 17.9393 27.3341 18.6314C27.1772 18.9881 27.2859 19.1498 27.5737 19.3448C28.4825 19.9681 29.5661 20.3118 30.6817 20.3305Z" fill="#EAB81B"/>
</svg>
