<svg width="56" height="56" viewBox="0 0 56 56" fill="none" xmlns="http://www.w3.org/2000/svg">
<circle cx="28" cy="28" r="28" fill="#1F505B"/>
<path d="M28.5079 39.2518C26.3774 39.2518 24.4305 38.7376 22.6674 37.709C20.9147 36.6805 19.5293 35.2899 18.5113 33.5372C17.5038 31.7846 17 29.8587 17 27.7597C17 25.6607 17.5038 23.7348 18.5113 21.9821C19.5293 20.2295 20.9147 18.8494 22.6674 17.8418C24.42 16.8238 26.3669 16.3148 28.5079 16.3148C30.6384 16.3148 32.58 16.8238 34.3326 17.8418C36.0853 18.8598 37.4654 20.2452 38.473 21.9979C39.491 23.7401 40 25.6607 40 27.7597C40 29.8482 39.491 31.7741 38.473 33.5372C37.4654 35.2899 36.0801 36.6805 34.3169 37.709C32.5642 38.7376 30.6279 39.2518 28.5079 39.2518ZM28.5079 33.8206C29.5259 33.8206 30.4757 33.5582 31.3573 33.0335C32.2389 32.4982 32.942 31.7688 33.4668 30.8452C33.9916 29.9112 34.2539 28.8879 34.2539 27.7754C34.2539 26.663 33.9863 25.6449 33.4511 24.7214C32.9263 23.7978 32.2231 23.0736 31.3415 22.5489C30.46 22.0136 29.5154 21.746 28.5079 21.746C27.4898 21.746 26.54 22.0136 25.6585 22.5489C24.7769 23.0736 24.0684 23.7978 23.5332 24.7214C23.0084 25.6449 22.7461 26.663 22.7461 27.7754C22.7461 28.8879 23.0084 29.9059 23.5332 30.8295C24.0684 31.7531 24.7769 32.4825 25.6585 33.0177C26.5505 33.553 27.5003 33.8206 28.5079 33.8206Z" fill="#E5EB69"/>
<path d="M24.6559 12.0204C25.9748 11.9622 27.0651 11.42 27.8532 10.3304C28.0029 10.1228 28.0493 9.98591 27.8198 9.77388C27.7297 9.69223 27.6585 9.59332 27.6106 9.48354C27.5628 9.37375 27.5394 9.25552 27.5419 9.13649C27.5444 9.01745 27.5729 8.90025 27.6254 8.79245C27.6779 8.68465 27.7533 8.58864 27.8467 8.51062C28.0177 8.35658 28.2437 8.27185 28.4779 8.27401C28.7121 8.27618 28.9364 8.36508 29.1043 8.52225C29.1951 8.60324 29.2676 8.70144 29.3172 8.81067C29.3668 8.9199 29.3924 9.03781 29.3924 9.15701C29.3924 9.27621 29.3668 9.39412 29.3172 9.50336C29.2676 9.61259 29.1951 9.71078 29.1043 9.79177C28.8905 9.9877 28.9277 10.1147 29.0615 10.3125C29.348 10.7319 29.7192 11.0917 30.153 11.3705C30.5868 11.6492 31.0743 11.8412 31.5867 11.9351C32.099 12.029 32.6257 12.0228 33.1356 11.917C33.6454 11.8111 34.1279 11.6078 34.5545 11.3189C34.7888 11.1588 34.9263 11.0353 34.7748 10.7115C34.7242 10.5984 34.6997 10.476 34.7029 10.3529C34.7062 10.2298 34.7371 10.1088 34.7935 9.99828C34.8499 9.88776 34.9306 9.79031 35.0299 9.71265C35.1292 9.635 35.2448 9.57897 35.3687 9.54842C35.8335 9.42049 36.3781 9.72199 36.4841 10.1693C36.6142 10.6954 36.3159 11.1669 35.7405 11.2483C35.4422 11.2903 35.2953 11.4183 35.1605 11.6607C34.4522 12.9108 33.8627 14.2199 33.3992 15.5721C33.3017 15.8656 33.2264 15.9604 32.8722 15.7967C29.9054 14.4252 26.9238 14.444 23.9598 15.8083C23.6428 15.9542 23.5601 15.9085 23.4625 15.6142C22.9983 14.2466 22.4034 12.9234 21.6854 11.6616C21.5702 11.4567 21.4605 11.3252 21.1761 11.2948C21.0487 11.2823 20.9256 11.2438 20.8149 11.1818C20.7043 11.1199 20.6086 11.036 20.5343 10.9357C20.46 10.8354 20.4087 10.7209 20.384 10.6001C20.3592 10.4792 20.3615 10.3546 20.3907 10.2346C20.5078 9.74346 21.0329 9.42943 21.5172 9.56005C22.0748 9.70946 22.363 10.2212 22.1371 10.7419C22.0191 11.0103 22.1009 11.132 22.3174 11.2787C23.0012 11.7477 23.8165 12.0063 24.6559 12.0204V12.0204Z" fill="#EAB81B"/>
</svg>
