<svg width="40" height="40" viewBox="0 0 40 40" fill="none" xmlns="http://www.w3.org/2000/svg">
<rect width="40" height="40" rx="14" fill="#1F505B"/>
<path d="M20.5051 27.3381C19.1157 27.3381 17.846 27.0027 16.6961 26.3319C15.553 25.6611 14.6496 24.7542 13.9856 23.6112C13.3285 22.4681 13 21.2121 13 19.8432C13 18.4743 13.3285 17.2183 13.9856 16.0752C14.6496 14.9322 15.553 14.0321 16.6961 13.375C17.8392 12.7111 19.1088 12.3792 20.5051 12.3792C21.8946 12.3792 23.1608 12.7111 24.3039 13.375C25.447 14.039 26.347 14.9425 27.0041 16.0855C27.668 17.2217 28 18.4743 28 19.8432C28 21.2053 27.668 22.4613 27.0041 23.6112C26.347 24.7542 25.4435 25.6611 24.2936 26.3319C23.1506 27.0027 21.8877 27.3381 20.5051 27.3381ZM20.5051 23.796C21.1691 23.796 21.7885 23.6249 22.3634 23.2826C22.9384 22.9336 23.397 22.4579 23.7392 21.8555C24.0815 21.2464 24.2526 20.579 24.2526 19.8535C24.2526 19.128 24.078 18.464 23.729 17.8617C23.3867 17.2594 22.9281 16.7871 22.3532 16.4449C21.7782 16.0958 21.1622 15.9212 20.5051 15.9212C19.8412 15.9212 19.2218 16.0958 18.6468 16.4449C18.0719 16.7871 17.6099 17.2594 17.2608 17.8617C16.9185 18.464 16.7474 19.128 16.7474 19.8535C16.7474 20.579 16.9185 21.2429 17.2608 21.8453C17.6099 22.4476 18.0719 22.9233 18.6468 23.2724C19.2286 23.6214 19.848 23.796 20.5051 23.796Z" fill="#E5EB69"/>
<path d="M17.9931 9.57855C18.8532 9.54062 19.5643 9.18704 20.0783 8.47637C20.1759 8.34101 20.2062 8.25174 20.0565 8.11345C19.9977 8.0602 19.9513 7.9957 19.9201 7.9241C19.8889 7.8525 19.8736 7.7754 19.8752 7.69777C19.8769 7.62013 19.8954 7.5437 19.9297 7.47339C19.9639 7.40309 20.0131 7.34047 20.074 7.28959C20.1855 7.18913 20.333 7.13387 20.4857 7.13528C20.6384 7.13669 20.7847 7.19467 20.8942 7.29718C20.9534 7.35 21.0007 7.41403 21.033 7.48527C21.0654 7.55651 21.0821 7.63341 21.0821 7.71115C21.0821 7.78889 21.0654 7.86579 21.033 7.93703C21.0007 8.00826 20.9534 8.0723 20.8942 8.12512C20.7548 8.2529 20.779 8.33576 20.8663 8.4647C21.0532 8.73827 21.2952 8.97292 21.5781 9.1547C21.861 9.33649 22.179 9.46171 22.5131 9.52293C22.8473 9.58416 23.1908 9.58014 23.5233 9.51111C23.8558 9.44208 24.1705 9.30946 24.4487 9.12111C24.6015 9.01667 24.6912 8.93615 24.5924 8.72493C24.5594 8.65116 24.5434 8.57138 24.5455 8.49108C24.5476 8.41079 24.5677 8.33189 24.6045 8.2598C24.6414 8.18772 24.694 8.12417 24.7587 8.07353C24.8235 8.02288 24.8989 7.98634 24.9797 7.96642C25.2828 7.88298 25.638 8.07961 25.7071 8.37135C25.792 8.71443 25.5974 9.02192 25.2222 9.07501C25.0276 9.10244 24.9318 9.18587 24.8439 9.34399C24.382 10.1593 23.9975 11.013 23.6952 11.8949C23.6316 12.0863 23.5825 12.1482 23.3516 12.0414C21.4167 11.1469 19.4721 11.1592 17.5391 12.049C17.3324 12.1441 17.2784 12.1143 17.2148 11.9224C16.9121 11.0305 16.5241 10.1675 16.0558 9.34458C15.9806 9.21096 15.9091 9.12519 15.7236 9.10535C15.6406 9.09719 15.5603 9.07208 15.4881 9.03169C15.4159 8.99131 15.3535 8.93658 15.3051 8.87115C15.2566 8.80572 15.2232 8.7311 15.207 8.65227C15.1909 8.57343 15.1924 8.49218 15.2114 8.41394C15.2878 8.09361 15.6303 7.88882 15.9461 7.974C16.3098 8.07144 16.4977 8.40519 16.3504 8.74477C16.2734 8.91981 16.3267 8.99916 16.468 9.09485C16.9139 9.40071 17.4456 9.56935 17.9931 9.57855V9.57855Z" fill="#EAB81B"/>
</svg>
