<svg width="46" height="46" viewBox="0 0 46 46" fill="none" xmlns="http://www.w3.org/2000/svg">
<rect width="46" height="46" rx="14" fill="#E5EB69"/>
<path d="M31.032 23.054C29.2485 23.054 27.7976 24.505 27.7976 26.2884C27.7976 28.0718 29.2485 29.5228 31.032 29.5228H35.614C35.6323 29.5228 35.6501 29.5209 35.6682 29.52C35.6861 29.5209 35.7037 29.5227 35.7218 29.5227C36.3173 29.5227 36.8 29.04 36.8 28.4446V19.9813C36.8 18.546 36.0945 17.273 35.0127 16.4887L31.3449 10.4717C31.1954 10.2263 30.954 10.0508 30.6745 9.98417C30.3949 9.91744 30.1004 9.96514 29.8561 10.1166L27.1513 11.794L25.9315 9.72968C25.7848 9.4815 25.5449 9.30242 25.2653 9.23234C24.9857 9.16226 24.6896 9.20717 24.4433 9.35681L14.0574 15.6688H12.4343C11.8489 15.6688 11.3709 15.1997 11.3565 14.6176C11.3709 14.0355 11.8489 13.5665 12.4343 13.5665H14.4289C15.0243 13.5665 15.507 13.0838 15.507 12.4883C15.507 11.8929 15.0243 11.4102 14.4289 11.4102H12.4343C10.9089 11.4102 9.62683 12.4718 9.28782 13.895C9.23143 14.0258 9.19995 14.1697 9.19995 14.3211V14.5907V14.6446V32.4876C9.19995 34.8655 11.1345 36.8 13.5125 36.8H32.4875C34.3467 36.8 35.991 35.6157 36.579 33.8529C36.7674 33.2881 36.4623 32.6775 35.8975 32.4891C35.3327 32.3007 34.722 32.6058 34.5336 33.1706C34.2396 34.0517 33.4174 34.6438 32.4875 34.6438H13.5125C12.3235 34.6438 11.3562 33.6765 11.3562 32.4876V17.6401C11.6936 17.7598 12.0564 17.8251 12.4343 17.8251H32.4875C33.6764 17.8251 34.6437 18.7923 34.6437 19.9813V23.054H31.032ZM34.6437 27.3665H31.032C30.4375 27.3665 29.9539 26.8829 29.9539 26.2883C29.9539 25.6939 30.4375 25.2102 31.032 25.2102H34.6437V27.3665ZM18.2092 15.6689L24.6305 11.7664L25.7785 13.7093C25.8005 13.7624 25.8259 13.8147 25.8571 13.8652C25.8806 13.9029 25.9066 13.9381 25.9337 13.972L26.9363 15.6689H18.2092ZM29.4409 15.6688L28.2485 13.6508L30.0692 12.5217L31.9876 15.6688H29.4409Z" fill="#1F505B"/>
</svg>
